<svg width="44" height="44" viewBox="0 0 44 44" fill="none" xmlns="http://www.w3.org/2000/svg">
<path d="M6.87503 22C6.87461 19.3448 7.57318 16.7363 8.9005 14.4367C10.2278 12.1371 12.1371 10.2274 14.4365 8.89959C16.7359 7.57182 19.3442 6.87274 21.9994 6.87264C24.6546 6.87253 27.2631 7.57141 29.5625 8.899C29.8782 9.07846 30.252 9.12579 30.6024 9.03066C30.9528 8.93552 31.2514 8.70565 31.4329 8.39121C31.6145 8.07676 31.6643 7.70327 31.5715 7.35224C31.4786 7.00121 31.2508 6.70113 30.9375 6.5175C27.5299 4.5501 23.5683 3.76206 19.6672 4.27559C15.766 4.78912 12.1433 6.57553 9.3609 9.35777C6.57848 12.14 4.79184 15.7626 4.27806 19.6637C3.76428 23.5648 4.55207 27.5264 6.51925 30.9342C8.48643 34.342 11.5231 37.0054 15.1582 38.5115C18.7934 40.0176 22.8239 40.2821 26.6248 39.2641C30.4256 38.246 33.7843 36.0023 36.18 32.8809C38.5757 29.7595 39.8745 25.9348 39.875 22C39.875 21.6353 39.7302 21.2856 39.4723 21.0277C39.2144 20.7699 38.8647 20.625 38.5 20.625C38.1354 20.625 37.7856 20.7699 37.5278 21.0277C37.2699 21.2856 37.125 21.6353 37.125 22C37.125 26.0114 35.5315 29.8585 32.695 32.695C29.8585 35.5315 26.0114 37.125 22 37.125C17.9886 37.125 14.1415 35.5315 11.305 32.695C8.46855 29.8585 6.87503 26.0114 6.87503 22Z" fill="#202733"/>
<path d="M42.2233 9.22347C42.3511 9.09563 42.4525 8.94385 42.5217 8.77682C42.5909 8.60979 42.6265 8.43076 42.6265 8.24997C42.6265 8.06917 42.5909 7.89015 42.5217 7.72311C42.4525 7.55608 42.3511 7.40431 42.2233 7.27647C42.0954 7.14862 41.9437 7.04722 41.7766 6.97803C41.6096 6.90884 41.4306 6.87323 41.2498 6.87323C41.069 6.87323 40.89 6.90884 40.7229 6.97803C40.5559 7.04722 40.4041 7.14862 40.2763 7.27647L21.9998 25.5557L14.7233 18.2765C14.5954 18.1486 14.4437 18.0472 14.2766 17.978C14.1096 17.9088 13.9306 17.8732 13.7498 17.8732C13.569 17.8732 13.39 17.9088 13.2229 17.978C13.0559 18.0472 12.9041 18.1486 12.7763 18.2765C12.6484 18.4043 12.547 18.5561 12.4778 18.7231C12.4087 18.8901 12.373 19.0692 12.373 19.25C12.373 19.4308 12.4087 19.6098 12.4778 19.7768C12.547 19.9439 12.6484 20.0956 12.7763 20.2235L21.0263 28.4735C21.154 28.6015 21.3057 28.7031 21.4728 28.7724C21.6398 28.8417 21.8189 28.8774 21.9998 28.8774C22.1806 28.8774 22.3597 28.8417 22.5268 28.7724C22.6938 28.7031 22.8456 28.6015 22.9733 28.4735L42.2233 9.22347Z" fill="#202733"/>
</svg>
