<svg width="550" height="550" viewBox="0 0 550 550" fill="none" xmlns="http://www.w3.org/2000/svg">
<path d="M354.512 166.907H448.8V143.66" stroke="#1A1A1A" stroke-width="4.033" stroke-miterlimit="10" stroke-linecap="round" stroke-linejoin="round"/>
<path d="M340.267 63.8184H106.37C95.6085 63.8184 86.7535 71.9034 85.5068 82.3351H361.112C359.883 71.9034 351.028 63.8184 340.267 63.8184Z" fill="#1C0311" stroke="#1A1A1A" stroke-width="2.016" stroke-miterlimit="10" stroke-linecap="round" stroke-linejoin="round"/>
<path d="M112.017 75.5517C113.384 75.5517 114.492 74.4436 114.492 73.0767C114.492 71.7098 113.384 70.6017 112.017 70.6017C110.65 70.6017 109.542 71.7098 109.542 73.0767C109.542 74.4436 110.65 75.5517 112.017 75.5517Z" fill="white" stroke="#1A1A1A" stroke-width="4.033" stroke-miterlimit="10" stroke-linecap="round" stroke-linejoin="round"/>
<path d="M127.032 75.5517C128.399 75.5517 129.507 74.4436 129.507 73.0767C129.507 71.7098 128.399 70.6017 127.032 70.6017C125.665 70.6017 124.557 71.7098 124.557 73.0767C124.557 74.4436 125.665 75.5517 127.032 75.5517Z" fill="white" stroke="#1A1A1A" stroke-width="4.033" stroke-miterlimit="10" stroke-linecap="round" stroke-linejoin="round"/>
<path d="M142.047 75.5517C143.413 75.5517 144.522 74.4436 144.522 73.0767C144.522 71.7098 143.413 70.6017 142.047 70.6017C140.68 70.6017 139.572 71.7098 139.572 73.0767C139.572 74.4436 140.68 75.5517 142.047 75.5517Z" fill="white" stroke="#1A1A1A" stroke-width="4.033" stroke-miterlimit="10" stroke-linecap="round" stroke-linejoin="round"/>
<path d="M85.5065 82.335C85.4149 83.16 85.3599 83.985 85.3599 84.8284V222.438C85.3599 234.043 94.7649 243.448 106.37 243.448H340.267C351.872 243.448 361.277 234.043 361.277 222.438V84.8467C361.277 84.0034 361.222 83.16 361.13 82.3534H85.5065V82.335Z" fill="white" stroke="#1A1A1A" stroke-width="4.033" stroke-miterlimit="10" stroke-linecap="round" stroke-linejoin="round"/>
<path d="M211.457 166.852V169.07H209.238" stroke="#1A1A1A" stroke-width="4.033" stroke-linecap="round" stroke-linejoin="round"/>
<path d="M204.637 169.07H105.563" stroke="#1A1A1A" stroke-width="4.033" stroke-linecap="round" stroke-linejoin="round" stroke-dasharray="25.14 25.14"/>
<path d="M103.253 169.07H101.035V166.852" stroke="#1A1A1A" stroke-width="4.033" stroke-linecap="round" stroke-linejoin="round"/>
<path d="M101.035 162.617V97.02" stroke="#1A1A1A" stroke-width="4.033" stroke-linecap="round" stroke-linejoin="round" stroke-dasharray="23.09 23.09"/>
<path d="M101.035 94.8933V92.675H103.253" stroke="#1A1A1A" stroke-width="4.033" stroke-linecap="round" stroke-linejoin="round"/>
<path d="M107.873 92.675H206.947" stroke="#1A1A1A" stroke-width="4.033" stroke-linecap="round" stroke-linejoin="round" stroke-dasharray="25.14 25.14"/>
<path d="M209.238 92.675H211.457V94.8933" stroke="#1A1A1A" stroke-width="4.033" stroke-linecap="round" stroke-linejoin="round"/>
<path d="M211.457 99.1283V164.743" stroke="#1A1A1A" stroke-width="4.033" stroke-linecap="round" stroke-linejoin="round" stroke-dasharray="23.09 23.09"/>
<path d="M305.507 166.852V169.07H303.307" stroke="#1A1A1A" stroke-width="4.033" stroke-linecap="round" stroke-linejoin="round"/>
<path d="M299.053 169.07H224.748" stroke="#1A1A1A" stroke-width="4.033" stroke-linecap="round" stroke-linejoin="round" stroke-dasharray="23.16 23.16"/>
<path d="M222.64 169.07H220.422V166.852" stroke="#1A1A1A" stroke-width="4.033" stroke-linecap="round" stroke-linejoin="round"/>
<path d="M220.422 162.617V97.02" stroke="#1A1A1A" stroke-width="4.033" stroke-linecap="round" stroke-linejoin="round" stroke-dasharray="23.09 23.09"/>
<path d="M220.422 94.8933V92.675H222.64" stroke="#1A1A1A" stroke-width="4.033" stroke-linecap="round" stroke-linejoin="round"/>
<path d="M226.875 92.675H301.18" stroke="#1A1A1A" stroke-width="4.033" stroke-linecap="round" stroke-linejoin="round" stroke-dasharray="23.16 23.16"/>
<path d="M303.307 92.675H305.507V94.8933" stroke="#1A1A1A" stroke-width="4.033" stroke-linecap="round" stroke-linejoin="round"/>
<path d="M305.507 99.1284V164.743" stroke="#1A1A1A" stroke-width="4.033" stroke-linecap="round" stroke-linejoin="round" stroke-dasharray="23.09 23.09"/>
<path d="M348.058 229.148V231.367H345.84" stroke="#1A1A1A" stroke-width="4.033" stroke-linecap="round" stroke-linejoin="round"/>
<path d="M341.898 231.367H320.118" stroke="#1A1A1A" stroke-width="4.033" stroke-linecap="round" stroke-linejoin="round" stroke-dasharray="21.59 21.59"/>
<path d="M318.138 231.367H315.92V229.148" stroke="#1A1A1A" stroke-width="4.033" stroke-linecap="round" stroke-linejoin="round"/>
<path d="M315.92 224.822V97.0566" stroke="#1A1A1A" stroke-width="4.033" stroke-linecap="round" stroke-linejoin="round" stroke-dasharray="23.62 23.62"/>
<path d="M315.92 94.8933V92.675H318.138" stroke="#1A1A1A" stroke-width="4.033" stroke-linecap="round" stroke-linejoin="round"/>
<path d="M322.098 92.675H343.86" stroke="#1A1A1A" stroke-width="4.033" stroke-linecap="round" stroke-linejoin="round" stroke-dasharray="21.59 21.59"/>
<path d="M345.84 92.675H348.058V94.8933" stroke="#1A1A1A" stroke-width="4.033" stroke-linecap="round" stroke-linejoin="round"/>
<path d="M348.058 99.22V226.985" stroke="#1A1A1A" stroke-width="4.033" stroke-linecap="round" stroke-linejoin="round" stroke-dasharray="23.62 23.62"/>
<path d="M211.457 226.233V228.452H209.238" stroke="#1A1A1A" stroke-width="4.033" stroke-linecap="round" stroke-linejoin="round"/>
<path d="M204.637 228.452H105.563" stroke="#1A1A1A" stroke-width="4.033" stroke-linecap="round" stroke-linejoin="round" stroke-dasharray="25.14 25.14"/>
<path d="M103.253 228.452H101.035V226.233" stroke="#1A1A1A" stroke-width="4.033" stroke-linecap="round" stroke-linejoin="round"/>
<path d="M101.035 222.182V183.663" stroke="#1A1A1A" stroke-width="4.033" stroke-linecap="round" stroke-linejoin="round" stroke-dasharray="22.12 22.12"/>
<path d="M101.035 181.628V179.41H103.253" stroke="#1A1A1A" stroke-width="4.033" stroke-linecap="round" stroke-linejoin="round"/>
<path d="M107.873 179.41H206.947" stroke="#1A1A1A" stroke-width="4.033" stroke-linecap="round" stroke-linejoin="round" stroke-dasharray="25.14 25.14"/>
<path d="M209.238 179.41H211.457V181.628" stroke="#1A1A1A" stroke-width="4.033" stroke-linecap="round" stroke-linejoin="round"/>
<path d="M211.457 185.68V224.217" stroke="#1A1A1A" stroke-width="4.033" stroke-linecap="round" stroke-linejoin="round" stroke-dasharray="22.12 22.12"/>
<path d="M205.278 226.233H107.122C105.453 226.233 104.115 224.895 104.115 223.227V185.68C104.115 184.012 105.453 182.673 107.122 182.673H205.297C206.965 182.673 208.303 184.012 208.303 185.68V223.227C208.285 224.895 206.947 226.233 205.278 226.233Z" fill="white" stroke="#1A1A1A" stroke-width="4.033" stroke-miterlimit="10" stroke-linecap="round" stroke-linejoin="round"/>
<path d="M144.815 208.303L150.242 218.9L156.585 208.817L144.815 208.303Z" fill="#1C0311" stroke="#1A1A1A" stroke-width="2.016" stroke-miterlimit="10" stroke-linecap="round" stroke-linejoin="round"/>
<path d="M152.075 212.978C152.735 213.327 153.377 213.693 154 214.06" stroke="#1A1A1A" stroke-width="4.033" stroke-linecap="round" stroke-linejoin="round"/>
<path d="M157.667 216.517C173.653 228.378 181.555 250.708 175.725 269.867C170.628 286.642 157.062 299.182 144.925 311.813C138.747 318.248 132.44 325.765 132.312 334.675C132.183 342.448 136.803 349.433 141.607 355.52C151.342 367.84 162.69 378.858 175.267 388.245" stroke="#1A1A1A" stroke-width="4.033" stroke-linecap="round" stroke-linejoin="round" stroke-dasharray="24.06 24.06"/>
<path d="M177.045 389.565C177.65 390.005 178.237 390.427 178.842 390.848" stroke="#1A1A1A" stroke-width="4.033" stroke-linecap="round" stroke-linejoin="round"/>
<path d="M209.128 376.163H53.4601C43.9817 376.163 36.3 383.845 36.3 393.323V396.623H209.128V376.163Z" fill="white" stroke="#1A1A1A" stroke-width="4.033" stroke-miterlimit="10" stroke-linecap="round" stroke-linejoin="round"/>
<path d="M209.128 396.623H36.3V416.772H209.128V396.623Z" fill="#1C0311" stroke="#1A1A1A" stroke-width="2.016" stroke-miterlimit="10" stroke-linecap="round" stroke-linejoin="round"/>
<path d="M209.128 416.772H36.3V486.182H209.128V416.772Z" fill="white" stroke="#1A1A1A" stroke-width="4.033" stroke-miterlimit="10" stroke-linecap="round" stroke-linejoin="round"/>
<path d="M70.7302 466.492H51.4985V476.502H70.7302V466.492Z" fill="white" stroke="#1A1A1A" stroke-width="4.033" stroke-miterlimit="10" stroke-linecap="round" stroke-linejoin="round"/>
<path d="M95.0952 466.492H75.8635V476.502H95.0952V466.492Z" fill="white" stroke="#1A1A1A" stroke-width="4.033" stroke-miterlimit="10" stroke-linecap="round" stroke-linejoin="round"/>
<path d="M119.478 466.492H100.247V476.502H119.478V466.492Z" fill="white" stroke="#1A1A1A" stroke-width="4.033" stroke-miterlimit="10" stroke-linecap="round" stroke-linejoin="round"/>
<path d="M114.913 474.1C107.745 455.253 111.118 434.17 123.805 419.467C138.875 402.013 164.633 396.385 187.018 406.12C188.448 399.062 191.492 388.538 198.77 378.162C232.082 330.715 329.762 321.108 381.718 368.317C390.702 376.475 408.008 395.138 416.02 429.935C433.052 408.338 464.31 407.99 479.857 424.527C494.725 440.348 493.478 469.737 473.037 486.145C354.878 486.145 236.72 486.145 118.562 486.145C117.352 482.148 116.123 478.133 114.913 474.1Z" fill="white" stroke="#1A1A1A" stroke-width="4.033" stroke-miterlimit="10" stroke-linecap="round" stroke-linejoin="round"/>
<path d="M333.043 337.04H199.943V357.39H333.043V337.04Z" fill="white" stroke="#1A1A1A" stroke-width="4.033" stroke-miterlimit="10" stroke-linecap="round" stroke-linejoin="round"/>
<path d="M333.043 357.39H199.943V465.19H333.043V357.39Z" fill="white" stroke="#1A1A1A" stroke-width="4.033" stroke-miterlimit="10" stroke-linecap="round" stroke-linejoin="round"/>
<path d="M333.043 465.172H199.943V468.6H333.043V465.172Z" fill="white" stroke="#1A1A1A" stroke-width="4.033" stroke-miterlimit="10" stroke-linecap="round" stroke-linejoin="round"/>
<path d="M333.043 468.6H199.943V486.145H333.043V468.6Z" fill="white" stroke="#1A1A1A" stroke-width="4.033" stroke-miterlimit="10" stroke-linecap="round" stroke-linejoin="round"/>
<path d="M285.34 369.563H248.985V376.567H285.34V369.563Z" fill="#1C0311" stroke="#1A1A1A" stroke-width="2.016" stroke-miterlimit="10" stroke-linecap="round" stroke-linejoin="round"/>
<path d="M199.943 337.04L187.77 352.55L187.99 366.887L199.943 357.793V337.04Z" fill="#1C0311" stroke="#1A1A1A" stroke-width="2.016" stroke-miterlimit="10" stroke-linecap="round" stroke-linejoin="round"/>
<path d="M199.943 357.793L187.99 366.887L189.493 467.207L199.943 465.025V357.793Z" fill="white" stroke="#1A1A1A" stroke-width="4.033" stroke-miterlimit="10" stroke-linecap="round" stroke-linejoin="round"/>
<path d="M189.493 467.207L189.548 471.112L199.943 468.508V465.025L189.493 467.207Z" fill="white" stroke="#1A1A1A" stroke-width="4.033" stroke-miterlimit="10" stroke-linecap="round" stroke-linejoin="round"/>
<path d="M189.548 471.112L189.768 486.163H199.943V468.508L189.548 471.112Z" fill="#1C0311" stroke="#1A1A1A" stroke-width="2.016" stroke-miterlimit="10" stroke-linecap="round" stroke-linejoin="round"/>
<path d="M11.9165 486.163H538.083" stroke="#1A1A1A" stroke-width="6.049" stroke-miterlimit="10" stroke-linecap="round" stroke-linejoin="round"/>
<path d="M449.148 147.052C464.164 147.052 476.337 134.879 476.337 119.863C476.337 104.848 464.164 92.675 449.148 92.675C434.133 92.675 421.96 104.848 421.96 119.863C421.96 134.879 434.133 147.052 449.148 147.052Z" fill="white" stroke="#1A1A1A" stroke-width="4.033" stroke-miterlimit="10" stroke-linecap="round" stroke-linejoin="round"/>
<path d="M453.145 114.327C455.033 113.227 456.317 111.173 456.317 108.827C456.317 105.307 453.457 102.465 449.955 102.465C446.435 102.465 443.593 105.325 443.593 108.827C443.593 111.173 444.858 113.227 446.765 114.327C441.192 115.757 437.067 120.817 437.067 126.83V133.063H462.898V126.83C462.862 120.798 458.718 115.738 453.145 114.327Z" fill="#1C0311" stroke="#1A1A1A" stroke-width="2.016" stroke-miterlimit="10" stroke-linecap="round" stroke-linejoin="round"/>
<path d="M287.687 190.923C287.687 190.923 310.145 241.487 321.383 241.138C332.622 240.79 291.995 255.823 291.995 255.823L287.687 220.953V190.923Z" fill="#CC4746" stroke="#1A1A1A" stroke-width="4.033" stroke-miterlimit="10" stroke-linecap="round" stroke-linejoin="round"/>
<path d="M222.713 263.102C222.713 263.102 208.945 228.782 222.713 205.26C236.482 181.738 254.155 173.397 254.155 173.397C254.155 173.397 274.175 169.565 283.012 179.74C291.848 189.915 307.193 224.437 294.012 267.813C264.165 278.667 222.713 263.102 222.713 263.102ZM220.843 251.918C220.843 251.918 238.058 237.93 256.428 237.93L220.843 251.918Z" fill="#CC4746"/>
<path d="M220.843 251.918C220.843 251.918 238.058 237.93 256.428 237.93M222.713 263.102C222.713 263.102 208.945 228.782 222.713 205.26C236.482 181.738 254.155 173.397 254.155 173.397C254.155 173.397 274.175 169.565 283.012 179.74C291.848 189.915 307.193 224.437 294.012 267.813C264.165 278.667 222.713 263.102 222.713 263.102Z" stroke="#1A1A1A" stroke-width="4.033" stroke-miterlimit="10" stroke-linecap="round" stroke-linejoin="round"/>
<path d="M351.193 262.222C335.427 278.355 335.06 308.513 335.06 308.513L358.637 326.737C358.637 326.737 365.97 309.173 378.602 288.237C390.445 268.602 410.63 235.712 378.602 231.715C346.573 227.718 290.29 261.232 290.29 261.232C290.29 261.232 264.88 291.042 265.375 291.17C265.87 291.298 311.172 298.76 311.172 298.76C311.172 298.76 334.767 283.855 340.12 281.105" fill="white"/>
<path d="M351.193 262.222C335.427 278.355 335.06 308.513 335.06 308.513L358.637 326.737C358.637 326.737 365.97 309.173 378.602 288.237C390.445 268.602 410.63 235.712 378.602 231.715C346.573 227.718 290.29 261.232 290.29 261.232C290.29 261.232 264.88 291.042 265.375 291.17C265.87 291.298 311.172 298.76 311.172 298.76C311.172 298.76 334.767 283.855 340.12 281.105" stroke="#1A1A1A" stroke-width="4.033" stroke-miterlimit="10" stroke-linecap="round" stroke-linejoin="round"/>
<path d="M363.715 443.74C365.164 443.575 366.245 442.787 367.144 441.705C366.869 441.448 366.667 441.247 366.575 441.118C365.255 439.248 363.734 436.865 363.734 436.865L349.214 440.367C349.214 440.367 349.177 442.017 349.324 444.29C353.65 446.398 359.242 444.382 363.715 443.74Z" fill="#1C0311" stroke="#1A1A1A" stroke-width="2.016" stroke-miterlimit="10" stroke-linecap="round" stroke-linejoin="round"/>
<path d="M392.022 462.642C389.162 458.535 370.81 445.097 367.162 441.723C366.263 442.805 365.163 443.593 363.733 443.758C359.26 444.4 353.668 446.417 349.36 444.308C349.617 448.47 350.478 454.758 353.173 457.233C357.335 461.065 375.357 469.168 382.287 469.242C389.18 469.315 395.102 467.06 392.022 462.642Z" fill="white" stroke="#1A1A1A" stroke-width="4.033" stroke-miterlimit="10" stroke-linecap="round" stroke-linejoin="round"/>
<path d="M231.477 271.663C231.477 271.663 223.465 276.998 222.347 293.627C221.228 310.273 223.575 337.7 257.877 338.873C292.178 340.047 310.53 339.533 313.042 336.545C314.215 345.877 342.907 435.618 347.398 440.293C351.908 444.968 367.748 442.292 367.913 434.28C368.078 426.268 366.74 345.712 364.907 334.363C363.073 323.015 360.232 296.67 287.338 287.668L231.477 271.663ZM258.885 297.403C258.885 297.403 261.617 303.912 257.877 310.585L258.885 297.403Z" fill="white"/>
<path d="M258.885 297.403C258.885 297.403 261.617 303.912 257.877 310.585M231.477 271.663C231.477 271.663 223.465 276.998 222.347 293.627C221.228 310.273 223.575 337.7 257.877 338.873C292.178 340.047 310.53 339.533 313.042 336.545C314.215 345.877 342.907 435.618 347.398 440.293C351.908 444.968 367.748 442.292 367.913 434.28C368.078 426.268 366.74 345.712 364.907 334.363C363.073 323.015 360.232 296.67 287.338 287.668L231.477 271.663Z" stroke="#1A1A1A" stroke-width="4.033" stroke-miterlimit="10" stroke-linecap="round" stroke-linejoin="round"/>
<path d="M242.679 298.228C242.679 298.228 239.232 321.163 284.827 317.992C330.422 314.82 340.707 325.05 342.284 351.945C343.86 378.858 354.53 438.148 354.53 438.148" stroke="#1A1A1A" stroke-width="4.033" stroke-miterlimit="10" stroke-linecap="round" stroke-linejoin="round" stroke-dasharray="24.2 24.2"/>
<path d="M228.177 277.677C228.177 277.677 237.142 288.622 250.048 290.07C262.955 291.518 277.273 290.785 291.995 279.052C298.76 272.947 296.175 271.223 296.175 271.223H229.772L227.425 276.283L228.177 277.677ZM341.623 251.533C341.623 251.533 373.652 227.26 378.473 224.143C383.295 221.008 380.288 218.075 380.288 218.075C380.288 218.075 368.005 205.113 363.092 200.933C358.178 196.772 355.208 199.815 355.208 199.815L315.92 229.588C315.92 229.588 313.848 231.385 316.488 234.373C319.128 237.362 336.087 253.183 336.087 253.183C336.087 253.183 337.627 255.237 341.623 251.533Z" fill="#1C0311" stroke="#1A1A1A" stroke-width="2.016" stroke-miterlimit="10" stroke-linecap="round" stroke-linejoin="round"/>
<path d="M342.522 248.05C342.522 248.05 370.132 227.132 374.275 224.437C378.418 221.742 375.833 219.212 375.833 219.212C375.833 219.212 365.255 208.028 361.002 204.435C356.767 200.842 354.2 203.463 354.2 203.463L320.338 229.13C320.338 229.13 318.56 230.67 320.833 233.255C323.107 235.84 337.737 249.462 337.737 249.462C337.737 249.462 339.075 251.24 342.522 248.05Z" fill="white" stroke="#1A1A1A" stroke-width="4.033" stroke-miterlimit="10" stroke-linecap="round" stroke-linejoin="round"/>
<path d="M256.502 224.62L257.877 241.303C257.877 241.303 273.515 266.988 305.525 245.978C327.544 230.212 340.304 216.462 353.064 215.71C365.824 214.958 361.699 218.845 354.182 220.587C346.684 222.347 348.92 226.472 349.177 228.598C349.434 230.725 348.682 237.728 338.049 238.48C327.415 239.232 326.792 245.868 320.412 252.487C314.032 259.123 291.189 286.678 261.324 288.182C231.459 289.685 223.795 266.145 222.714 263.12C222.714 263.12 233.842 248.105 255.109 242.348L257.877 241.303L256.502 224.62ZM379.794 223.117C379.794 223.117 381.022 225.757 385.679 221.045C390.354 216.333 387.384 210.705 383.68 205.865C379.977 201.025 375.339 200.53 375.339 200.53C375.339 200.53 364.504 203.867 366.007 208.908C367.51 213.95 372.552 218.002 377.429 216.993C380.032 215.453 381.095 218.68 381.389 219.267C381.389 219.267 382.159 221.375 379.794 223.117ZM276.119 166.705C289.484 174.937 294.03 166.32 297.459 159.812C300.887 153.303 299.164 143.257 299.164 143.257C298.045 138.747 292.912 132.88 280.024 135.997C267.135 139.132 264.825 159.757 264.825 159.757L254.32 174.955C254.32 174.955 254.082 179.978 262.094 180.895C270.105 181.812 273.882 179.593 275.092 177.302C277.677 171.875 279.107 168.703 279.107 168.703" fill="white"/>
<path d="M276.119 166.705C289.484 174.937 294.03 166.32 297.459 159.812C300.887 153.303 299.164 143.257 299.164 143.257C298.045 138.747 292.912 132.88 280.024 135.997C267.135 139.132 264.825 159.757 264.825 159.757L254.32 174.955C254.32 174.955 254.082 179.978 262.094 180.895C270.105 181.812 273.882 179.593 275.092 177.302C277.677 171.875 279.107 168.703 279.107 168.703M256.502 224.62L257.877 241.303C257.877 241.303 273.515 266.988 305.525 245.978C327.544 230.212 340.304 216.462 353.064 215.71C365.824 214.958 361.699 218.845 354.182 220.587C346.684 222.347 348.92 226.472 349.177 228.598C349.434 230.725 348.682 237.728 338.049 238.48C327.415 239.232 326.792 245.868 320.412 252.487C314.032 259.123 291.189 286.678 261.324 288.182C231.459 289.685 223.795 266.145 222.714 263.12C222.714 263.12 233.842 248.105 255.109 242.348L257.877 241.303L256.502 224.62ZM379.794 223.117C379.794 223.117 381.022 225.757 385.679 221.045C390.354 216.333 387.384 210.705 383.68 205.865C379.977 201.025 375.339 200.53 375.339 200.53C375.339 200.53 364.504 203.867 366.007 208.908C367.51 213.95 372.552 218.002 377.429 216.993C380.032 215.453 381.095 218.68 381.389 219.267C381.389 219.267 382.159 221.375 379.794 223.117Z" stroke="#1A1A1A" stroke-width="4.033" stroke-miterlimit="10" stroke-linecap="round" stroke-linejoin="round"/>
<path d="M276.192 166.907L278.52 169.547L278.85 168.575L276.192 166.907Z" fill="#1C0311" stroke="#1A1A1A" stroke-width="2.016" stroke-miterlimit="10" stroke-linecap="round" stroke-linejoin="round"/>
<path d="M274.817 155.522C274.817 155.522 274.01 161.59 269.867 161.645C265.724 161.7 259.105 155.21 259.802 149.197C260.499 143.183 265.614 131.872 275.697 127.307C285.762 122.742 297.587 129.067 301.968 130.68C306.35 132.293 310.292 131.377 311.722 130.497C313.152 129.617 312.528 134.255 310.347 136.18C308.165 138.123 304.333 143.88 291.335 140.562C289.208 139.938 284.332 142.945 284.332 144.448C284.332 145.952 282.389 146.318 282.389 146.318C282.389 146.318 278.942 138.875 275.752 141.937C272.562 144.998 277.182 151.14 278.319 152.313C279.455 153.487 274.817 155.522 274.817 155.522Z" fill="#1C0311" stroke="#1A1A1A" stroke-width="2.016" stroke-miterlimit="10" stroke-linecap="round" stroke-linejoin="round"/>
<path d="M103.51 91.2451H98.6702V96.085H103.51V91.2451Z" fill="#1C0311" stroke="#1A1A1A" stroke-width="2.016" stroke-miterlimit="10" stroke-linecap="round" stroke-linejoin="round"/>
<path d="M103.51 166.082H98.6702V170.922H103.51V166.082Z" fill="#1C0311" stroke="#1A1A1A" stroke-width="2.016" stroke-miterlimit="10" stroke-linecap="round" stroke-linejoin="round"/>
<path d="M213.473 91.2451H208.633V96.085H213.473V91.2451Z" fill="#1C0311" stroke="#1A1A1A" stroke-width="2.016" stroke-miterlimit="10" stroke-linecap="round" stroke-linejoin="round"/>
<path d="M213.473 166.082H208.633V170.922H213.473V166.082Z" fill="#1C0311" stroke="#1A1A1A" stroke-width="2.016" stroke-miterlimit="10" stroke-linecap="round" stroke-linejoin="round"/>
<path d="M72.5632 324.39C88.2877 324.39 101.035 311.643 101.035 295.918C101.035 280.194 88.2877 267.447 72.5632 267.447C56.8388 267.447 44.0916 280.194 44.0916 295.918C44.0916 311.643 56.8388 324.39 72.5632 324.39Z" fill="white" stroke="#1A1A1A" stroke-width="4.033" stroke-miterlimit="10" stroke-linecap="round" stroke-linejoin="round"/>
<path d="M72.5632 321.273C86.5664 321.273 97.9182 309.921 97.9182 295.918C97.9182 281.915 86.5664 270.563 72.5632 270.563C58.5601 270.563 47.2083 281.915 47.2083 295.918C47.2083 309.921 58.5601 321.273 72.5632 321.273Z" fill="white" stroke="#1A1A1A" stroke-width="4.033" stroke-miterlimit="10" stroke-linecap="round" stroke-linejoin="round"/>
<path d="M66.6782 281.197V310.622L82.6649 295.918L66.6782 281.197Z" fill="#1C0311" stroke="#1A1A1A" stroke-width="2.016" stroke-miterlimit="10" stroke-linecap="round" stroke-linejoin="round"/>
<path d="M462.862 256.153C474.06 256.153 483.138 247.075 483.138 235.877C483.138 224.678 474.06 215.6 462.862 215.6C451.663 215.6 442.585 224.678 442.585 235.877C442.585 247.075 451.663 256.153 462.862 256.153Z" fill="white" stroke="#1A1A1A" stroke-width="4.033" stroke-miterlimit="10" stroke-linecap="round" stroke-linejoin="round"/>
<path d="M462.862 253.953C472.845 253.953 480.938 245.86 480.938 235.877C480.938 225.893 472.845 217.8 462.862 217.8C452.878 217.8 444.785 225.893 444.785 235.877C444.785 245.86 452.878 253.953 462.862 253.953Z" fill="white" stroke="#1A1A1A" stroke-width="4.033" stroke-miterlimit="10" stroke-linecap="round" stroke-linejoin="round"/>
<path d="M458.26 245.795L459.085 239.598H456.5V237.728H459.378L459.983 233.145H457.27V231.275H460.277L461.102 225.243H462.935L462.147 231.275H465.428L466.253 225.243H468.123L467.335 231.275H469.92V233.145H467.042L466.473 237.728H469.187V239.598H466.18L465.355 245.795H463.467L464.292 239.598H461.01L460.185 245.795H458.26ZM464.548 237.728L465.153 233.145H461.872L461.267 237.728H464.548Z" fill="black"/>
<path d="M370.443 446.472L366.41 452.1L374.66 449.992L373.597 456.225L379.573 454.117L378.528 457.453" stroke="#1A1A1A" stroke-width="6.049" stroke-miterlimit="10" stroke-linecap="round" stroke-linejoin="round"/>
<path d="M63.2317 129.763H31.2034V161.792H63.2317V129.763Z" fill="white" stroke="#1A1A1A" stroke-width="4.033" stroke-miterlimit="10" stroke-linecap="round" stroke-linejoin="round"/>
<path d="M47.2085 135.227V156.31" stroke="#1A1A1A" stroke-width="4.033" stroke-miterlimit="10" stroke-linecap="round" stroke-linejoin="round"/>
<path d="M36.7034 145.768H57.4567" stroke="#1A1A1A" stroke-width="4.033" stroke-miterlimit="10" stroke-linecap="round" stroke-linejoin="round"/>
<path d="M448.8 171.068C451.099 171.068 452.962 169.205 452.962 166.907C452.962 164.608 451.099 162.745 448.8 162.745C446.502 162.745 444.638 164.608 444.638 166.907C444.638 169.205 446.502 171.068 448.8 171.068Z" fill="white" stroke="#1A1A1A" stroke-width="4.033" stroke-miterlimit="10" stroke-linecap="round" stroke-linejoin="round"/>
<path d="M457.545 313.042H409.237V344.373H457.545V313.042Z" fill="white" stroke="#1A1A1A" stroke-width="4.033" stroke-miterlimit="10" stroke-linecap="round" stroke-linejoin="round"/>
<path d="M433.382 328.258L409.237 313.042H457.545L433.382 328.258Z" fill="white" stroke="#1A1A1A" stroke-width="4.033" stroke-miterlimit="10" stroke-linecap="round" stroke-linejoin="round"/>
<path d="M409.237 344.373L427.222 324.39" stroke="#1A1A1A" stroke-width="4.033" stroke-miterlimit="10" stroke-linecap="round" stroke-linejoin="round"/>
<path d="M440.22 324.39L457.545 344.373" stroke="#1A1A1A" stroke-width="4.033" stroke-miterlimit="10" stroke-linecap="round" stroke-linejoin="round"/>
</svg>
