<svg width="364" height="77" viewBox="0 0 364 77" fill="none" xmlns="http://www.w3.org/2000/svg">
<path d="M110.72 17.512V65H103.04V60.584C101.717 62.2053 100.075 63.4213 98.112 64.232C96.192 65.0427 94.0587 65.448 91.712 65.448C88.4267 65.448 85.4613 64.7227 82.816 63.272C80.2133 61.8213 78.1653 59.7733 76.672 57.128C75.1787 54.44 74.432 51.368 74.432 47.912C74.432 44.456 75.1787 41.4053 76.672 38.76C78.1653 36.1147 80.2133 34.0667 82.816 32.616C85.4613 31.1653 88.4267 30.44 91.712 30.44C93.9733 30.44 96.0427 30.824 97.92 31.592C99.7973 32.36 101.397 33.512 102.72 35.048V17.512H110.72ZM92.672 58.6C94.592 58.6 96.32 58.1733 97.856 57.32C99.392 56.424 100.608 55.1653 101.504 53.544C102.4 51.9227 102.848 50.0453 102.848 47.912C102.848 45.7787 102.4 43.9013 101.504 42.28C100.608 40.6587 99.392 39.4213 97.856 38.568C96.32 37.672 94.592 37.224 92.672 37.224C90.752 37.224 89.024 37.672 87.488 38.568C85.952 39.4213 84.736 40.6587 83.84 42.28C82.944 43.9013 82.496 45.7787 82.496 47.912C82.496 50.0453 82.944 51.9227 83.84 53.544C84.736 55.1653 85.952 56.424 87.488 57.32C89.024 58.1733 90.752 58.6 92.672 58.6ZM153.314 48.104C153.314 48.6587 153.271 49.448 153.186 50.472H126.37C126.839 52.9893 128.055 54.9947 130.018 56.488C132.023 57.9387 134.498 58.664 137.442 58.664C141.196 58.664 144.29 57.4267 146.722 54.952L151.01 59.88C149.474 61.7147 147.532 63.1013 145.186 64.04C142.839 64.9787 140.194 65.448 137.25 65.448C133.495 65.448 130.188 64.7013 127.33 63.208C124.471 61.7147 122.252 59.6453 120.674 57C119.138 54.312 118.37 51.2827 118.37 47.912C118.37 44.584 119.116 41.5973 120.61 38.952C122.146 36.264 124.258 34.1733 126.946 32.68C129.634 31.1867 132.663 30.44 136.034 30.44C139.362 30.44 142.327 31.1867 144.93 32.68C147.575 34.1307 149.623 36.2 151.074 38.888C152.567 41.5333 153.314 44.6053 153.314 48.104ZM136.034 36.84C133.474 36.84 131.298 37.608 129.506 39.144C127.756 40.6373 126.69 42.6427 126.306 45.16H145.698C145.356 42.6853 144.311 40.68 142.562 39.144C140.812 37.608 138.636 36.84 136.034 36.84ZM192.373 30.824L177.717 65H169.461L154.805 30.824H163.125L173.749 56.168L184.693 30.824H192.373ZM358.308 65.448C356.857 65.448 355.62 64.9573 354.596 63.976C353.572 62.952 353.06 61.672 353.06 60.136C353.06 58.5573 353.551 57.2773 354.532 56.296C355.556 55.3147 356.815 54.824 358.308 54.824C359.801 54.824 361.039 55.3147 362.02 56.296C363.044 57.2773 363.556 58.5573 363.556 60.136C363.556 61.672 363.044 62.952 362.02 63.976C360.996 64.9573 359.759 65.448 358.308 65.448Z" fill="black"/>
<path d="M206.461 27.176V40.808H228.093V47.848H206.461V65H198.141V20.2H230.845V27.176H206.461ZM238.123 17.512H246.123V65H238.123V17.512ZM271.983 65.448C268.527 65.448 265.412 64.7013 262.639 63.208C259.866 61.7147 257.69 59.6453 256.111 57C254.575 54.312 253.807 51.2827 253.807 47.912C253.807 44.5413 254.575 41.5333 256.111 38.888C257.69 36.2427 259.866 34.1733 262.639 32.68C265.412 31.1867 268.527 30.44 271.983 30.44C275.482 30.44 278.618 31.1867 281.391 32.68C284.164 34.1733 286.319 36.2427 287.855 38.888C289.434 41.5333 290.223 44.5413 290.223 47.912C290.223 51.2827 289.434 54.312 287.855 57C286.319 59.6453 284.164 61.7147 281.391 63.208C278.618 64.7013 275.482 65.448 271.983 65.448ZM271.983 58.6C274.927 58.6 277.359 57.6187 279.279 55.656C281.199 53.6933 282.159 51.112 282.159 47.912C282.159 44.712 281.199 42.1307 279.279 40.168C277.359 38.2053 274.927 37.224 271.983 37.224C269.039 37.224 266.607 38.2053 264.687 40.168C262.81 42.1307 261.871 44.712 261.871 47.912C261.871 51.112 262.81 53.6933 264.687 55.656C266.607 57.6187 269.039 58.6 271.983 58.6ZM350.248 30.824L337.64 65H329.96L321.128 41.448L312.168 65H304.488L291.944 30.824H299.496L308.52 56.04L317.928 30.824H324.648L333.864 56.168L343.144 30.824H350.248Z" fill="#CC4746"/>
<path d="M59.5146 24.2872C59.5235 23.2739 59.2492 22.2783 58.7225 21.4126C58.1958 20.5469 57.4377 19.8456 56.5337 19.3878C55.6297 18.93 54.6158 18.7338 53.6063 18.8215C52.5967 18.9091 51.6318 19.2771 50.8202 19.8839C50.0087 20.4907 49.3828 21.3121 49.0132 22.2556C48.6436 23.1991 48.545 24.2271 48.7284 25.2237C48.9118 26.2203 49.3701 27.1458 50.0514 27.8958C50.7328 28.6459 51.6102 29.1906 52.5846 29.4686C52.0552 37.6659 41.949 38.3397 38.7887 38.3397C36.0038 38.3614 33.2684 39.0785 30.8311 40.4261C28.3938 41.7736 26.3318 43.7087 24.8325 46.0557V25.4261C26.1194 25.1032 27.2439 24.321 27.9942 23.2267C28.7445 22.1324 29.0688 20.8016 28.9062 19.4848C28.7435 18.168 28.105 16.9561 27.111 16.0773C26.1169 15.1984 24.8359 14.7134 23.5091 14.7134C22.1822 14.7134 20.9012 15.1984 19.9072 16.0773C18.9131 16.9561 18.2746 18.168 18.112 19.4848C17.9493 20.8016 18.2736 22.1324 19.0239 23.2267C19.7742 24.321 20.8987 25.1032 22.1856 25.4261V51.0928C22.1909 51.1408 22.1909 51.1892 22.1856 51.2372V54.1728C20.8987 54.4957 19.7742 55.2779 19.0239 56.3722C18.2736 57.4665 17.9493 58.7974 18.112 60.1142C18.2746 61.431 18.9131 62.6429 19.9072 63.5217C20.9012 64.4005 22.1822 64.8856 23.5091 64.8856C24.8359 64.8856 26.1169 64.4005 27.111 63.5217C28.105 62.6429 28.7435 61.431 28.9062 60.1142C29.0688 58.7974 28.7445 57.4665 27.9942 56.3722C27.2439 55.2779 26.1194 54.4957 24.8325 54.1728V52.0713C24.9769 51.6222 28.506 41.2272 38.7246 41.2272C46.6171 41.2272 55.0069 38.1151 55.424 29.4847C56.5823 29.1885 57.6108 28.5189 58.3503 27.5793C59.0897 26.6398 59.4989 25.4827 59.5146 24.2872ZM20.7419 20.1805C20.7419 19.6316 20.9046 19.0951 21.2096 18.6387C21.5145 18.1823 21.948 17.8266 22.4551 17.6166C22.9622 17.4065 23.5202 17.3515 24.0585 17.4586C24.5968 17.5657 25.0913 17.83 25.4795 18.2181C25.8676 18.6063 26.1319 19.1008 26.239 19.6391C26.346 20.1774 26.2911 20.7354 26.081 21.2425C25.871 21.7496 25.5153 22.1831 25.0589 22.488C24.6025 22.793 24.066 22.9557 23.5171 22.9557C23.152 22.9578 22.7902 22.8875 22.4525 22.7488C22.1149 22.6101 21.8081 22.4057 21.55 22.1476C21.2918 21.8895 21.0875 21.5827 20.9488 21.245C20.8101 20.9074 20.7397 20.5455 20.7419 20.1805ZM26.2762 59.3543C26.2794 59.9045 26.119 60.4433 25.8152 60.9021C25.5115 61.3609 25.0783 61.7191 24.5705 61.9311C24.0627 62.1432 23.5034 62.1995 22.9636 62.0929C22.4238 61.9863 21.9278 61.7217 21.5387 61.3326C21.1496 60.9435 20.885 60.4476 20.7784 59.9077C20.6719 59.3679 20.7282 58.8086 20.9402 58.3008C21.1522 57.7931 21.5104 57.3598 21.9693 57.0561C22.4281 56.7524 22.9668 56.5919 23.5171 56.5951C24.2476 56.5993 24.9469 56.8914 25.4635 57.4079C25.98 57.9244 26.272 58.6238 26.2762 59.3543ZM54.0765 27.0463C53.5269 27.0463 52.9897 26.8832 52.533 26.5775C52.0763 26.2718 51.7206 25.8375 51.511 25.3294C51.3014 24.8214 51.2474 24.2626 51.3558 23.7238C51.4642 23.185 51.7301 22.6906 52.1198 22.3031C52.5096 21.9156 53.0056 21.6526 53.5449 21.5473C54.0843 21.442 54.6428 21.4993 55.1496 21.7118C55.6565 21.9243 56.0888 22.2825 56.3918 22.741C56.6948 23.1995 56.8548 23.7376 56.8517 24.2872C56.8517 24.6509 56.7798 25.011 56.6401 25.3468C56.5005 25.6826 56.2958 25.9875 56.0379 26.2439C55.7799 26.5003 55.4739 26.7032 55.1373 26.8409C54.8007 26.9786 54.4401 27.0485 54.0765 27.0463Z" fill="#CC4746"/>
</svg>
