<svg width="312" height="66" viewBox="0 0 312 66" fill="none" xmlns="http://www.w3.org/2000/svg">
<path d="M94.9028 15.0103V55.7143H88.32V51.9292C87.186 53.3189 85.7785 54.3611 84.096 55.056C82.4503 55.7509 80.6217 56.0983 78.6103 56.0983C75.7943 56.0983 73.2525 55.4766 70.9851 54.2332C68.7542 52.9897 66.9988 51.2343 65.7188 48.9669C64.4389 46.6629 63.7988 44.0297 63.7988 41.0675C63.7988 38.1052 64.4389 35.4903 65.7188 33.2229C66.9988 30.9555 68.7542 29.2001 70.9851 27.9566C73.2525 26.7131 75.7943 26.0915 78.6103 26.0915C80.5485 26.0915 82.3223 26.4206 83.9314 27.0789C85.5405 27.7372 86.9117 28.7246 88.0457 30.0412V15.0103H94.9028ZM79.4331 50.2286C81.0788 50.2286 82.56 49.8629 83.8765 49.1315C85.1931 48.3635 86.2354 47.2846 87.0034 45.8949C87.7714 44.5052 88.1554 42.896 88.1554 41.0675C88.1554 39.2389 87.7714 37.6297 87.0034 36.24C86.2354 34.8503 85.1931 33.7897 83.8765 33.0583C82.56 32.2903 81.0788 31.9063 79.4331 31.9063C77.7874 31.9063 76.3063 32.2903 74.9897 33.0583C73.6731 33.7897 72.6308 34.8503 71.8628 36.24C71.0948 37.6297 70.7108 39.2389 70.7108 41.0675C70.7108 42.896 71.0948 44.5052 71.8628 45.8949C72.6308 47.2846 73.6731 48.3635 74.9897 49.1315C76.3063 49.8629 77.7874 50.2286 79.4331 50.2286ZM131.412 41.232C131.412 41.7075 131.375 42.384 131.302 43.2617H108.317C108.719 45.4194 109.761 47.1383 111.444 48.4183C113.163 49.6618 115.284 50.2835 117.807 50.2835C121.025 50.2835 123.677 49.2229 125.762 47.1017L129.437 51.3257C128.121 52.8983 126.456 54.0869 124.445 54.8915C122.433 55.6961 120.166 56.0983 117.643 56.0983C114.424 56.0983 111.59 55.4583 109.14 54.1783C106.689 52.8983 104.787 51.1246 103.435 48.8572C102.118 46.5532 101.46 43.9566 101.46 41.0675C101.46 38.2149 102.099 35.6549 103.38 33.3875C104.697 31.0835 106.507 29.2914 108.811 28.0115C111.115 26.7315 113.711 26.0915 116.601 26.0915C119.453 26.0915 121.995 26.7315 124.226 28.0115C126.493 29.2549 128.248 31.0286 129.492 33.3326C130.772 35.6 131.412 38.2331 131.412 41.232ZM116.601 31.5772C114.406 31.5772 112.541 32.2355 111.005 33.552C109.505 34.832 108.591 36.5509 108.262 38.7086H124.884C124.591 36.5874 123.695 34.8686 122.196 33.552C120.696 32.2355 118.831 31.5772 116.601 31.5772ZM164.891 26.4206L152.329 55.7143H145.252L132.69 26.4206H139.821L148.928 48.144L158.308 26.4206H164.891ZM307.121 56.0983C305.877 56.0983 304.817 55.6777 303.939 54.8366C303.062 53.9589 302.623 52.8617 302.623 51.5452C302.623 50.192 303.044 49.0949 303.885 48.2537C304.762 47.4126 305.841 46.992 307.121 46.992C308.401 46.992 309.462 47.4126 310.303 48.2537C311.181 49.0949 311.619 50.192 311.619 51.5452C311.619 52.8617 311.181 53.9589 310.303 54.8366C309.425 55.6777 308.365 56.0983 307.121 56.0983Z" fill="black"/>
<path d="M176.966 23.2937V34.9783H195.508V41.0126H176.966V55.7143H169.835V17.3143H197.867V23.2937H176.966ZM204.105 15.0103H210.962V55.7143H204.105V15.0103ZM233.128 56.0983C230.166 56.0983 227.496 55.4583 225.119 54.1783C222.742 52.8983 220.877 51.1246 219.524 48.8572C218.207 46.5532 217.549 43.9566 217.549 41.0675C217.549 38.1783 218.207 35.6 219.524 33.3326C220.877 31.0652 222.742 29.2914 225.119 28.0115C227.496 26.7315 230.166 26.0915 233.128 26.0915C236.127 26.0915 238.815 26.7315 241.192 28.0115C243.569 29.2914 245.416 31.0652 246.733 33.3326C248.086 35.6 248.762 38.1783 248.762 41.0675C248.762 43.9566 248.086 46.5532 246.733 48.8572C245.416 51.1246 243.569 52.8983 241.192 54.1783C238.815 55.4583 236.127 56.0983 233.128 56.0983ZM233.128 50.2286C235.652 50.2286 237.736 49.3875 239.382 47.7052C241.028 46.0229 241.85 43.8103 241.85 41.0675C241.85 38.3246 241.028 36.1121 239.382 34.4297C237.736 32.7474 235.652 31.9063 233.128 31.9063C230.605 31.9063 228.52 32.7474 226.874 34.4297C225.266 36.1121 224.461 38.3246 224.461 41.0675C224.461 43.8103 225.266 46.0229 226.874 47.7052C228.52 49.3875 230.605 50.2286 233.128 50.2286ZM300.212 26.4206L289.406 55.7143H282.823L275.252 35.5269L267.572 55.7143H260.99L250.238 26.4206H256.711L264.446 48.0343L272.51 26.4206H278.27L286.169 48.144L294.123 26.4206H300.212Z" fill="#FFF9F2"/>
<path d="M51.0126 20.8176C51.0203 19.9491 50.7851 19.0957 50.3337 18.3537C49.8822 17.6117 49.2324 17.0105 48.4576 16.6181C47.6827 16.2257 46.8137 16.0576 45.9484 16.1327C45.083 16.2078 44.2559 16.5233 43.5603 17.0434C42.8647 17.5635 42.3282 18.2675 42.0114 19.0763C41.6946 19.885 41.6101 20.7661 41.7673 21.6203C41.9245 22.4746 42.3173 23.2679 42.9013 23.9107C43.4854 24.5537 44.2374 25.0205 45.0726 25.2588C44.6189 32.2851 35.9564 32.8626 33.2476 32.8626C30.8605 32.8812 28.5159 33.4959 26.4268 34.651C24.3377 35.806 22.5702 37.4646 21.2851 39.4763V21.7938C22.3882 21.5171 23.352 20.8466 23.9951 19.9086C24.6383 18.9707 24.9162 17.83 24.7769 16.7013C24.6374 15.5726 24.0901 14.5338 23.2381 13.7806C22.386 13.0272 21.288 12.6115 20.1508 12.6115C19.0134 12.6115 17.9154 13.0272 17.0634 13.7806C16.2113 14.5338 15.6641 15.5726 15.5247 16.7013C15.3852 17.83 15.6632 18.9707 16.3063 19.9086C16.9494 20.8466 17.9133 21.5171 19.0163 21.7938V43.7939C19.0209 43.835 19.0209 43.8765 19.0163 43.9176V46.4339C17.9133 46.7106 16.9494 47.3811 16.3063 48.3191C15.6632 49.257 15.3852 50.3978 15.5247 51.5265C15.6641 52.6552 16.2113 53.6939 17.0634 54.4472C17.9154 55.2005 19.0134 55.6163 20.1508 55.6163C21.288 55.6163 22.386 55.2005 23.2381 54.4472C24.0901 53.6939 24.6374 52.6552 24.7769 51.5265C24.9162 50.3978 24.6383 49.257 23.9951 48.3191C23.352 47.3811 22.3882 46.7106 21.2851 46.4339V44.6326C21.4089 44.2476 24.4338 35.3376 33.1926 35.3376C39.9576 35.3376 47.1489 32.6701 47.5064 25.2726C48.4992 25.0187 49.3808 24.4448 50.0147 23.6394C50.6484 22.8341 50.9992 21.8423 51.0126 20.8176ZM17.7789 17.2976C17.7789 16.8271 17.9183 16.3673 18.1798 15.9761C18.4411 15.5849 18.8127 15.28 19.2473 15.1C19.682 14.9199 20.1603 14.8727 20.6217 14.9645C21.0831 15.0563 21.5069 15.2829 21.8397 15.6155C22.1723 15.9483 22.3989 16.3721 22.4907 16.8335C22.5824 17.2949 22.5353 17.7732 22.3553 18.2079C22.1753 18.6425 21.8704 19.0141 21.4792 19.2755C21.088 19.5369 20.6281 19.6763 20.1576 19.6763C19.8447 19.6781 19.5346 19.6179 19.2451 19.499C18.9557 19.3801 18.6928 19.2049 18.4715 18.9837C18.2502 18.7625 18.0751 18.4995 17.9562 18.21C17.8373 17.9207 17.777 17.6105 17.7789 17.2976ZM22.5226 50.8751C22.5253 51.3467 22.3878 51.8086 22.1274 52.2018C21.8671 52.5951 21.4958 52.9021 21.0605 53.0838C20.6253 53.2656 20.1459 53.3139 19.6832 53.2225C19.2205 53.1311 18.7954 52.9043 18.4619 52.5708C18.1283 52.2373 17.9016 51.8123 17.8102 51.3495C17.7189 50.8868 17.7672 50.4074 17.9489 49.9721C18.1306 49.537 18.4376 49.1656 18.8309 48.9053C19.2242 48.6449 19.6859 48.5074 20.1576 48.5101C20.7838 48.5137 21.3832 48.7641 21.826 49.2068C22.2687 49.6495 22.519 50.249 22.5226 50.8751ZM46.3514 23.1826C45.8803 23.1826 45.4199 23.0428 45.0284 22.7807C44.6369 22.5187 44.3321 22.1465 44.1524 21.7109C43.9727 21.2755 43.9265 20.7965 44.0194 20.3347C44.1123 19.8729 44.3402 19.4491 44.6742 19.117C45.0083 18.7848 45.4335 18.5594 45.8957 18.4691C46.3581 18.3789 46.8368 18.428 47.2712 18.6101C47.7057 18.7923 48.0762 19.0993 48.3359 19.4923C48.5957 19.8853 48.7328 20.3465 48.7301 20.8176C48.7301 21.1294 48.6685 21.438 48.5488 21.7259C48.4291 22.0137 48.2537 22.275 48.0326 22.4948C47.8115 22.7146 47.5492 22.8885 47.2607 23.0065C46.9721 23.1245 46.6631 23.1845 46.3514 23.1826Z" fill="#FFF9F2"/>
</svg>
